HIERARCHY
ROOT Hips
{
	OFFSET 0.0000 0.0000 0.0000
	CHANNELS 6 Xposition Yposition Zposition Zrotation Xrotation Yrotation
	JOINT Spine1
	{
		OFFSET -0.0137 5.0038 -0.0537
		CHANNELS 3 Zrotation Xrotation Yrotation
		JOINT Spine2
		{
			OFFSET -0.0000 7.1253 -0.0298
			CHANNELS 3 Zrotation Xrotation Yrotation
			JOINT Chest
			{
				OFFSET -0.0000 7.5501 -0.8160
				CHANNELS 3 Zrotation Xrotation Yrotation
				JOINT Neck1
				{
					OFFSET -0.1817 26.3113 -0.5533
					CHANNELS 3 Zrotation Xrotation Yrotation
					JOINT Neck2
					{
						OFFSET -0.0000 7.7094 2.3026
						CHANNELS 3 Zrotation Xrotation Yrotation
						JOINT Head
						{
							OFFSET -0.0000 6.1289 1.9537
							CHANNELS 3 Zrotation Xrotation Yrotation
							JOINT Jaw
							{
								OFFSET 0.0026 0.4756 3.0949
								CHANNELS 3 Zrotation Xrotation Yrotation
								End Site
								{
									OFFSET 0.0 1.0 0.0
								}
							}
							JOINT LeftEye
							{
								OFFSET 3.2064 5.3802 7.5869
								CHANNELS 3 Zrotation Xrotation Yrotation
								End Site
								{
									OFFSET 0.0 1.0 0.0
								}
							}
							JOINT RightEye
							{
								OFFSET -3.2224 5.3619 7.5582
								CHANNELS 3 Zrotation Xrotation Yrotation
								End Site
								{
									OFFSET 0.0 1.0 0.0
								}
							}
						}
					}
				}
				JOINT LeftShoulder
				{
					OFFSET 1.6217 23.2372 5.1134
					CHANNELS 3 Zrotation Xrotation Yrotation
					JOINT LeftArm
					{
						OFFSET 14.9198 0.0000 -5.5023
						CHANNELS 3 Zrotation Xrotation Yrotation
						JOINT LeftForeArm
						{
							OFFSET 28.7393 0.0000 -0.0026
							CHANNELS 3 Zrotation Xrotation Yrotation
							JOINT LeftHand
							{
								OFFSET 27.0940 -0.0000 0.0026
								CHANNELS 3 Zrotation Xrotation Yrotation
								JOINT LeftHandThumbEnd
								{
									OFFSET 12.2686 -3.2202 4.8331
									CHANNELS 3 Zrotation Xrotation Yrotation
									End Site
									{
										OFFSET 0.0 1.0 0.0
									}
								}
								JOINT LeftHandMiddleEnd
								{
									OFFSET 19.0120 -0.3129 -0.0340
									CHANNELS 3 Zrotation Xrotation Yrotation
									End Site
									{
										OFFSET 0.0 1.0 0.0
									}
								}
							}
						}
					}
				}
				JOINT RightShoulder
				{
					OFFSET -1.3801 23.1803 5.2142
					CHANNELS 3 Zrotation Xrotation Yrotation
					JOINT RightArm
					{
						OFFSET -15.0372 0.0000 -5.5456
						CHANNELS 3 Zrotation Xrotation Yrotation
						JOINT RightForeArm
						{
							OFFSET -28.7366 0.0000 -0.0026
							CHANNELS 3 Zrotation Xrotation Yrotation
							JOINT RightHand
							{
								OFFSET -27.1336 -0.0000 0.0026
								CHANNELS 3 Zrotation Xrotation Yrotation
								JOINT RightHandThumbEnd
								{
									OFFSET -12.2642 -3.2115 4.8040
									CHANNELS 3 Zrotation Xrotation Yrotation
									End Site
									{
										OFFSET 0.0 1.0 0.0
									}
								}
								JOINT RightHandMiddleEnd
								{
									OFFSET -19.0006 -0.3066 -0.0316
									CHANNELS 3 Zrotation Xrotation Yrotation
									End Site
									{
										OFFSET 0.0 1.0 0.0
									}
								}
							}
						}
					}
				}
			}
		}
	}
	JOINT LeftLeg
	{
		OFFSET 10.0432 -8.4345 2.5957
		CHANNELS 3 Zrotation Xrotation Yrotation
		JOINT LeftShin
		{
			OFFSET -0.0000 -43.2218 -0.8029
			CHANNELS 3 Zrotation Xrotation Yrotation
			JOINT LeftFoot
			{
				OFFSET 0.0000 -42.1551 -3.4815
				CHANNELS 3 Zrotation Xrotation Yrotation
				JOINT LeftToeBase
				{
					OFFSET 0.0000 -5.0595 13.2315
					CHANNELS 3 Zrotation Xrotation Yrotation
					End Site
					{
						OFFSET 0.0 1.0 0.0
					}
				}
			}
		}
	}
	JOINT RightLeg
	{
		OFFSET -10.0473 -8.2953 2.6203
		CHANNELS 3 Zrotation Xrotation Yrotation
		JOINT RightShin
		{
			OFFSET 0.0000 -43.3622 -0.8056
			CHANNELS 3 Zrotation Xrotation Yrotation
			JOINT RightFoot
			{
				OFFSET 0.0000 -42.1174 -3.4784
				CHANNELS 3 Zrotation Xrotation Yrotation
				JOINT RightToeBase
				{
					OFFSET -0.0000 -5.0796 13.2842
					CHANNELS 3 Zrotation Xrotation Yrotation
					End Site
					{
						OFFSET 0.0 1.0 0.0
					}
				}
			}
		}
	}
}
MOTION
Frames: 14
Frame Time: 0.033333
-4.5154 93.3688 -2.3923 3.1542 -1.4842 0.6768 -0.2913 2.4740 -0.1301 -0.3252 -4.0366 -1.0267 1.2982 14.7970 -2.6361 1.4891 24.1963 3.6466 2.5187 -3.8785 10.3488 3.0511 -9.2648 10.9111 -0.0438 -0.0425 0.0519 0.6729 -10.4905 -3.7699 -0.7553 -10.4577 3.9109 1.3846 14.0107 -10.5358 -47.8331 -12.4870 -37.2211 -0.2205 0.5324 -37.5134 -164.4943 65.9415 -127.3820 -13.9969 10.6824 13.9066 -60.1643 1.8246 1.8106 10.2461 14.2864 9.7250 53.9469 10.2285 4.3602 -0.4759 1.2019 65.7911 -35.9466 30.4447 -1.7254 16.8002 7.3384 -16.6988 50.7644 -3.5044 -5.8641 7.4750 -26.9547 22.6683 -0.2033 30.2710 -0.2855 -9.5146 1.7590 11.8139 1.6242 0.7649 -1.9231 -20.5352 -5.8971 -10.2582 0.0364 27.1767 0.5649 24.5464 -13.2933 -18.0297 -1.4058 0.0531 1.1235
-4.5153 93.4406 -2.3494 3.1211 -1.3953 0.7906 -0.3093 2.5370 -0.1329 -0.3069 -4.0292 -0.9655 1.2657 14.8013 -2.6503 1.6804 24.1377 3.4850 2.5018 -3.8845 10.5602 3.2831 -9.0464 10.8121 -0.0558 -0.0611 0.0710 0.6624 -10.5065 -3.7510 -0.7686 -10.4590 3.9336 1.4034 14.0538 -10.5143 -47.7602 -12.8178 -37.1948 -0.1960 0.4007 -37.0395 -164.9749 65.5501 -127.6327 -13.8991 10.8517 14.1274 -60.2595 1.7719 1.9022 10.4036 14.3586 9.7295 53.7041 10.1937 4.1107 -0.4014 1.1725 65.8456 -36.2275 30.0585 -1.5639 16.7592 7.3633 -16.7084 50.8498 -3.4710 -5.8567 7.5542 -27.0300 22.3405 -0.2332 30.1858 -0.3017 -9.6103 1.9806 11.8293 1.6310 0.6832 -1.9351 -20.3928 -5.8625 -10.3357 0.0188 27.0162 0.5701 24.3232 -13.3053 -18.1601 -1.4137 0.1398 1.1092
-4.5289 93.4797 -2.3036 3.0970 -1.2792 0.9270 -0.3237 2.5614 -0.1082 -0.3109 -4.0241 -0.9226 1.2621 14.8223 -2.6616 1.8772 24.0493 3.4314 2.4872 -3.8990 10.6028 3.4754 -8.7869 10.8128 -0.0610 -0.0667 0.0638 0.6569 -10.5168 -3.7535 -0.7735 -10.4615 3.9200 1.3706 14.0543 -10.5510 -47.7364 -13.0845 -37.2071 -0.1612 0.2984 -36.6216 -164.8910 65.4133 -127.5185 -13.8241 10.9093 14.2102 -60.3667 1.7434 1.9279 10.6075 14.4197 9.7999 53.4144 10.2324 3.7315 -0.3814 1.1366 65.9630 -36.5808 29.9597 -1.4884 16.7109 7.3450 -16.6636 50.8118 -3.4446 -5.8380 7.6180 -27.1136 21.9350 -0.2428 30.0937 -0.3038 -9.6344 2.1416 11.8455 1.6376 0.6903 -1.9523 -20.2824 -5.8595 -10.4084 0.0108 26.9027 0.5562 24.2108 -13.3884 -18.3255 -1.4164 0.2318 1.1104
-4.5582 93.5024 -2.2443 3.0539 -1.1718 1.0380 -0.3243 2.5845 -0.0851 -0.3160 -4.0145 -0.9067 1.2780 14.8523 -2.6191 2.0443 23.9085 3.4317 2.4712 -3.9064 10.6256 3.6427 -8.6262 10.8339 -0.0642 -0.0663 0.0551 0.6533 -10.5223 -3.7579 -0.7749 -10.4638 3.9070 1.2847 14.0507 -10.6076 -47.7313 -13.3648 -37.2162 -0.1579 0.2575 -36.1814 -164.8702 65.2055 -127.8188 -13.7855 10.8947 14.1868 -60.3757 1.7334 1.8971 10.8102 14.4945 9.9127 53.1387 10.2407 3.3248 -0.3863 1.1533 66.0104 -36.9262 30.0420 -1.4757 16.6838 7.3377 -16.6121 50.8139 -3.3989 -5.7670 7.7077 -27.1693 21.5186 -0.2352 29.9873 -0.2962 -9.6795 2.2653 11.9567 1.6388 0.6830 -1.9661 -20.1758 -5.8491 -10.4307 0.0010 26.7933 0.5466 24.1651 -13.4076 -18.5233 -1.4203 0.2621 1.1228
-4.5683 93.5300 -2.1755 3.0022 -1.0794 1.1117 -0.3103 2.5918 -0.0717 -0.3196 -3.9993 -0.8823 1.2964 14.8949 -2.5883 2.1622 23.6951 3.4592 2.4983 -3.8913 10.6630 3.7871 -8.5228 10.8593 -0.0689 -0.0657 0.0635 0.6469 -10.5151 -3.7430 -0.7772 -10.4520 3.9102 1.2125 14.0910 -10.6419 -47.6971 -13.6279 -37.3236 -0.1290 0.2654 -35.7503 -164.8592 64.9979 -128.2476 -13.7846 10.8761 14.1305 -60.4299 1.7254 1.8466 11.0022 14.5434 10.0511 52.9132 10.1618 2.8559 -0.3839 1.1966 66.0438 -37.1566 30.2815 -1.5557 16.6676 7.3263 -16.5726 50.8085 -3.3879 -5.7198 7.7756 -27.1917 21.1779 -0.2170 29.8639 -0.2889 -9.7093 2.3555 12.1205 1.6396 0.6779 -1.9826 -20.0633 -5.8233 -10.4146 -0.0033 26.6670 0.5385 24.1531 -13.3282 -18.7159 -1.4231 0.2574 1.1198
-4.5652 93.5628 -2.1134 2.9626 -1.0141 1.1452 -0.2986 2.6035 -0.0744 -0.3163 -3.9799 -0.8627 1.3189 14.9238 -2.5802 2.1816 23.4476 3.4746 2.5527 -3.8846 10.7085 3.9148 -8.3883 10.8979 -0.0738 -0.0655 0.0765 0.6408 -10.4987 -3.7218 -0.7814 -10.4312 3.9151 1.1689 14.1429 -10.6767 -47.6625 -13.8183 -37.4570 -0.0446 0.3114 -35.3842 -164.6084 64.9029 -128.3375 -13.8186 10.8705 14.0942 -60.4856 1.7171 1.8309 11.1398 14.5656 10.1791 52.7723 10.0651 2.4575 -0.4348 1.2221 66.0687 -37.1557 30.5409 -1.6287 16.6361 7.3397 -16.5582 50.8175 -3.3880 -5.6999 7.8226 -27.1812 20.9391 -0.2009 29.7632 -0.2746 -9.6917 2.4026 12.3012 1.6400 0.6550 -1.9847 -19.9842 -5.7838 -10.3796 0.0029 26.5386 0.5619 24.1502 -13.2222 -18.8603 -1.4250 0.2514 1.1104
-4.5660 93.5844 -2.0523 2.9453 -0.9716 1.1694 -0.2805 2.6390 -0.0601 -0.3116 -3.9755 -0.8810 1.3418 14.9300 -2.5799 2.1652 23.1883 3.4528 2.6009 -3.8833 10.7785 3.9997 -8.2623 10.9596 -0.0831 -0.0668 0.0941 0.6338 -10.4936 -3.6996 -0.7921 -10.4256 3.9320 1.1449 14.2141 -10.7630 -47.5678 -13.8873 -37.7009 0.0569 0.3739 -35.0852 -163.8954 65.1015 -127.8992 -13.8965 10.8719 14.1175 -60.5446 1.7161 1.8545 11.2643 14.5817 10.3165 52.7243 9.9717 2.0629 -0.4846 1.2061 66.1023 -37.0230 30.7775 -1.6836 16.6325 7.3532 -16.5727 50.8396 -3.3827 -5.7025 7.8406 -27.1637 20.7689 -0.1944 29.7035 -0.2746 -9.6580 2.4456 12.4565 1.6397 0.6174 -1.9779 -19.9378 -5.7042 -10.3057 0.0118 26.4204 0.5802 24.1508 -13.1436 -19.0142 -1.4250 0.2230 1.1050
-4.5498 93.6150 -1.9956 2.9590 -0.9262 1.2237 -0.2663 2.6571 -0.0612 -0.3071 -3.9673 -0.8800 1.3588 14.9177 -2.6271 2.1484 22.8645 3.3875 2.6258 -3.8844 10.8362 4.0723 -8.0663 10.9746 -0.0914 -0.0665 0.1063 0.6268 -10.4937 -3.6867 -0.8021 -10.4274 3.9469 1.1130 14.2923 -10.8694 -47.3876 -13.8572 -38.0649 0.1511 0.4374 -34.7432 -162.7470 65.6654 -127.1401 -13.9158 10.8709 14.1201 -60.5291 1.7419 1.8844 11.3812 14.5712 10.4169 52.7245 9.8427 1.6738 -0.4882 1.1596 66.1368 -36.7983 31.0228 -1.7303 16.6410 7.3378 -16.5738 50.8245 -3.4178 -5.7060 7.8107 -27.0975 20.6088 -0.1940 29.5721 -0.2756 -9.5912 2.5205 12.6385 1.6408 0.5772 -1.9667 -19.9279 -5.5685 -10.2028 0.0165 26.2290 0.6114 24.1149 -13.0322 -19.1975 -1.4241 0.1675 1.0979
-4.5177 93.6499 -1.9413 3.0025 -0.8801 1.3165 -0.2606 2.6770 -0.0739 -0.3063 -3.9643 -0.8926 1.3822 14.8950 -2.6896 2.1712 22.4882 3.3192 2.6400 -3.8763 10.8401 4.1004 -7.8375 10.9367 -0.0967 -0.0639 0.1136 0.6234 -10.4993 -3.6808 -0.8091 -10.4349 3.9571 1.1167 14.3712 -11.0171 -47.1200 -13.7806 -38.4995 0.2027 0.4637 -34.3652 -161.2021 66.6459 -126.1462 -13.9384 10.8188 14.0881 -60.4135 1.7713 1.9145 11.5013 14.5709 10.5110 52.7599 9.6714 1.3455 -0.4911 1.1211 66.0504 -36.4560 31.2579 -1.7910 16.6419 7.3180 -16.5951 50.7892 -3.4520 -5.7337 7.7287 -26.9943 20.4483 -0.1881 29.3713 -0.2669 -9.5196 2.5995 12.8067 1.6414 0.5540 -1.9591 -19.9428 -5.3997 -10.0838 0.0198 25.9978 0.6366 24.0579 -12.9437 -19.4243 -1.4237 0.1375 1.0945
-4.4911 93.6996 -1.9120 3.0543 -0.8096 1.4545 -0.2565 2.7057 -0.0877 -0.3118 -3.9603 -0.9170 1.4247 14.8556 -2.7624 2.2376 22.0524 3.2538 2.6453 -3.8580 10.7787 4.1120 -7.6185 10.8114 -0.0944 -0.0598 0.1103 0.6268 -10.5037 -3.6872 -0.8079 -10.4434 3.9558 1.1812 14.4215 -11.1917 -46.7639 -13.6524 -39.0085 0.2181 0.4543 -34.0116 -159.1004 68.0143 -124.7193 -13.9646 10.7542 14.0382 -60.2777 1.8003 1.9502 11.5635 14.5559 10.5776 52.8405 9.5374 1.2211 -0.5364 1.0833 65.8246 -36.0719 31.5862 -2.0397 16.6722 7.2858 -16.6083 50.7926 -3.4695 -5.7352 7.6051 -26.9210 20.2727 -0.1800 29.1375 -0.2523 -9.4272 2.6980 12.8741 1.6426 0.5171 -1.9468 -19.9353 -5.2514 -9.9629 0.0170 25.7606 0.6532 23.9811 -12.8583 -19.6763 -1.4236 0.1421 1.0990
-4.4907 93.7484 -1.9410 3.1015 -0.7061 1.6768 -0.2460 2.7552 -0.1031 -0.3237 -3.9470 -0.9644 1.4805 14.7962 -2.8238 2.3385 21.5350 3.1444 2.6516 -3.8400 10.6555 4.1357 -7.4145 10.6383 -0.0967 -0.0589 0.1116 0.6237 -10.5109 -3.6871 -0.8095 -10.4551 3.9584 1.3250 14.4566 -11.4107 -46.2423 -13.4150 -39.7036 0.2464 0.4656 -33.7007 -155.9504 69.8281 -122.3381 -14.0065 10.6764 13.9942 -60.1480 1.8104 2.0004 11.5547 14.5355 10.6366 52.9712 9.4062 1.2167 -0.5393 1.0401 65.5422 -35.6762 32.0751 -2.5934 16.6998 7.2519 -16.6273 50.8275 -3.4624 -5.7035 7.4723 -26.9155 20.0943 -0.1826 28.8697 -0.2451 -9.3187 2.8436 12.8491 1.6425 0.4524 -1.9434 -19.8982 -5.1236 -9.8473 0.0084 25.5245 0.6659 23.9446 -12.7847 -20.0258 -1.4233 0.1449 1.1119
-4.4956 93.7986 -2.0145 3.1403 -0.5628 1.9740 -0.2358 2.8276 -0.1207 -0.3353 -3.9217 -0.9941 1.5431 14.7050 -2.8895 2.5069 20.9680 3.0165 2.6455 -3.8141 10.4440 4.2198 -7.1712 10.4299 -0.1002 -0.0570 0.1155 0.6222 -10.5163 -3.6860 -0.8149 -10.4624 3.9657 1.5384 14.4654 -11.7081 -45.5307 -13.0267 -40.5975 0.3008 0.4771 -33.3883 -150.8928 72.1943 -118.0957 -14.0889 10.6015 13.9950 -60.1274 1.7735 2.0586 11.4990 14.4782 10.6967 53.1329 9.3217 1.3161 -0.5663 1.0022 65.2334 -35.2541 32.6849 -3.3294 16.7448 7.2184 -16.6417 50.8729 -3.4504 -5.6498 7.3176 -26.9761 19.9188 -0.1899 28.5460 -0.2461 -9.2321 3.0249 12.7213 1.6415 0.3601 -1.9447 -19.8209 -5.0567 -9.7388 -0.0058 25.3334 0.6544 23.9147 -12.6913 -20.4444 -1.4237 0.1017 1.1231
-4.5401 93.8532 -2.1018 3.1816 -0.3606 2.3514 -0.2294 2.9267 -0.1431 -0.3446 -3.8785 -1.0211 1.5967 14.5797 -2.9558 2.7251 20.3462 2.8655 2.6338 -3.7967 10.1800 4.3730 -6.9119 10.1437 -0.1035 -0.0590 0.1172 0.6196 -10.5223 -3.6865 -0.8190 -10.4715 3.9704 1.7805 14.4538 -12.0651 -44.5488 -12.4776 -41.7067 0.3598 0.4792 -33.0422 -141.8430 75.0405 -110.0254 -14.2552 10.4886 13.9928 -60.1251 1.7100 2.1227 11.3680 14.3799 10.7558 53.3150 9.2993 1.5933 -0.6525 0.9997 64.9678 -34.8043 33.2813 -4.1424 16.8468 7.1734 -16.6670 50.8907 -3.4652 -5.6023 7.1270 -27.1194 19.7997 -0.2104 28.1586 -0.2831 -9.1418 3.2397 12.4599 1.6396 0.2320 -1.9410 -19.7108 -5.1087 -9.6100 -0.0220 25.2479 0.6603 23.8941 -12.5972 -20.9202 -1.4225 0.0021 1.1317
-4.6397 93.8970 -2.3020 3.2111 -0.0981 2.7934 -0.2143 3.0833 -0.1614 -0.3503 -3.8208 -1.0845 1.6267 14.4272 -2.9818 2.9793 19.6225 2.6885 2.5940 -3.7726 9.8572 4.5515 -6.6101 9.7389 -0.1059 -0.0623 0.1184 0.6171 -10.5406 -3.6900 -0.8210 -10.4961 3.9773 2.0211 14.3978 -12.5145 -43.2359 -11.7776 -42.9903 0.3780 0.4439 -32.6479 -125.4583 77.8318 -94.8633 -14.4412 10.3853 13.9997 -60.1260 1.6350 2.1502 11.0990 14.2376 10.8254 53.5074 9.3444 1.9756 -0.7049 0.9683 64.8807 -34.3947 33.8436 -5.0674 16.9718 7.1393 -16.7019 50.9358 -3.4673 -5.5591 6.8976 -27.3792 19.7708 -0.2343 27.7050 -0.3311 -9.0480 3.4918 12.0145 1.6387 0.1007 -1.9360 -19.5466 -5.3280 -9.4409 -0.0437 25.3568 0.6603 23.8389 -12.5020 -21.4127 -1.4218 -0.1070 1.1397
